<svg viewBox="0 0 100 100" xmlns="http://www.w3.org/2000/svg"><defs><linearGradient gradientTransform="translate(13.478 8.913) scale(1.2174)" gradientUnits="userSpaceOnUse" id="test-type-coded-active-b" x1="10.14" x2="52.14" y1="60.78" y2="12.12"><stop offset="0" stop-color="#051a2d"></stop><stop offset="1" stop-color="#e4eef7"></stop></linearGradient><linearGradient gradientTransform="matrix(1.2248 0 0 .81648 4962.5 -2798.5)" gradientUnits="userSpaceOnUse" id="test-type-coded-active-e" x1="-4021.2" x2="-4021.2" y1="3457.5" y2="3486.9"><stop offset="0" stop-color="#beffa5"></stop><stop offset="1" stop-color="#51d31e"></stop></linearGradient><filter filterUnits="userSpaceOnUse" height="75" id="test-type-coded-active-c" width="75" x="0" y="0"><feOffset dy="1"></feOffset><feGaussianBlur result="d" stdDeviation="2.5"></feGaussianBlur><feFlood flood-opacity=".161"></feFlood><feComposite in2="d" operator="in" result="result1"></feComposite><feComposite in="SourceGraphic" in2="result1"></feComposite></filter><filter filterUnits="userSpaceOnUse" height="27" id="test-type-coded-active-d" width="39" x="18" y="24"><feOffset dy="1"></feOffset><feGaussianBlur result="g" stdDeviation=".5"></feGaussianBlur><feFlood flood-color="#080807" flood-opacity=".153"></feFlood><feComposite in2="g" operator="in" result="result1"></feComposite><feComposite in="SourceGraphic" in2="result1"></feComposite></filter><radialGradient cx="27.957" cy="27.249" gradientTransform="matrix(1.2063 0 0 1.2286 17.13 32.043)" gradientUnits="userSpaceOnUse" id="test-type-coded-active-a" r="27.957"><stop offset="0" stop-color="#051a2d"></stop><stop offset=".793" stop-color="#051a2d" stop-opacity=".063"></stop><stop offset=".926" stop-color="#051a2d" stop-opacity="0"></stop><stop offset="1" stop-color="#051a2d" stop-opacity="0"></stop></radialGradient></defs><ellipse cx="50" cy="65.522" fill="url(#test-type-coded-active-a)" rx="32.87" ry="33.478"></ellipse><path d="M20.783 8.913h58.435a7.304 7.304 0 017.304 7.304v58.435a7.304 7.304 0 01-7.304 7.305H20.783a7.304 7.304 0 01-7.304-7.305V16.217a7.304 7.304 0 017.304-7.304z" fill="url(#test-type-coded-active-b)"></path><g fill="none" filter="url(#test-type-coded-active-c)" stroke-linecap="round" stroke-linejoin="round" transform="translate(4.348 1) scale(1.2174)"><rect height="60" rx="6" width="60" x="7.5" y="6.5"></rect><rect height="58" rx="5" stroke="#fff" stroke-opacity=".509" stroke-width="2" width="58" x="8.5" y="7.5"></rect></g><g filter="url(#test-type-coded-active-d)" transform="translate(4.348 1) scale(1.2174)"><path d="M33.689 48.419a1.409 1.409 0 01-.877-1.8l7.6-21.171a1.444 1.444 0 011.834-.863 1.409 1.409 0 01.877 1.8l-7.6 21.172a1.437 1.437 0 01-1.356.943 1.454 1.454 0 01-.478-.081zm11.032-3.131a1.4 1.4 0 010-2l7.306-7.185-6.5-6.391a1.4 1.4 0 010-2 1.456 1.456 0 012.034 0l7.515 7.39a1.4 1.4 0 010 2l-8.323 8.186a1.448 1.448 0 01-1.018.414 1.446 1.446 0 01-1.013-.414zm-17.287 0l-7.514-7.39a1.4 1.4 0 010-2l8.322-8.185a1.456 1.456 0 012.034 0 1.4 1.4 0 010 2l-7.307 7.186 6.5 6.389a1.4 1.4 0 010 2 1.445 1.445 0 01-1.017.415 1.445 1.445 0 01-1.017-.416z" fill="url(#test-type-coded-active-e)"></path></g></svg>