<svg viewBox="0 0 100 100" xmlns="http://www.w3.org/2000/svg"><defs><linearGradient gradientTransform="translate(13.478 8.913) scale(1.2174)" gradientUnits="userSpaceOnUse" id="svg-test-type-coded-b" x1="10.14" x2="52.14" y1="60.78" y2="12.12"><stop offset="0" stop-color="#71889a"></stop><stop offset="1" stop-color="#e4eef7"></stop></linearGradient><linearGradient gradientTransform="matrix(1.2248 0 0 .81648 4962.5 -2798.5)" gradientUnits="userSpaceOnUse" id="svg-test-type-coded-e" x1="-4021.2" x2="-4021.2" y1="3457.5" y2="3486.9"><stop offset="0" stop-color="#fff"></stop><stop offset=".828" stop-color="#f0f0f0" stop-opacity=".886"></stop><stop offset="1" stop-color="#c9c9c9"></stop></linearGradient><filter filterUnits="userSpaceOnUse" height="75" id="svg-test-type-coded-c" width="75" x="0" y="0"><feOffset dy="1"></feOffset><feGaussianBlur result="d" stdDeviation="2.5"></feGaussianBlur><feFlood flood-opacity=".161"></feFlood><feComposite in2="d" operator="in" result="result1"></feComposite><feComposite in="SourceGraphic" in2="result1"></feComposite></filter><filter filterUnits="userSpaceOnUse" height="27" id="svg-test-type-coded-f" width="39" x="18" y="24"><feOffset dy="1"></feOffset><feGaussianBlur result="g" stdDeviation=".5"></feGaussianBlur><feFlood flood-color="#7c93a4" flood-opacity=".231"></feFlood><feComposite in2="g" operator="in" result="result1"></feComposite><feComposite in="SourceGraphic" in2="result1"></feComposite></filter><radialGradient cx="27.957" cy="27.249" gradientTransform="matrix(1.2063 0 0 1.2286 17.13 32.043)" gradientUnits="userSpaceOnUse" id="svg-test-type-coded-a" r="27.957"><stop offset="0" stop-color="#71889a"></stop><stop offset=".793" stop-color="#71889a" stop-opacity=".078"></stop><stop offset=".926" stop-color="#71889a" stop-opacity="0"></stop><stop offset="1" stop-color="#71889a" stop-opacity="0"></stop></radialGradient><style></style></defs><path d="M82.87 65.522c.185 13.192-8.183 26.047-20.445 31.004-11.553 4.963-25.82 2.28-34.816-6.495-9.75-9.026-13.104-24.033-8.344-36.404 4.384-12.19 16.45-21.225 29.464-21.559 12.62-.663 25.027 6.905 30.544 18.213 2.374 4.706 3.604 9.973 3.596 15.241z" fill="url(#svg-test-type-coded-a)"></path><path d="M20.783 8.913c19.727.025 39.456-.05 59.182.038 4.286.303 7.111 4.642 6.558 8.713-.026 19.245.05 38.492-.038 57.735-.303 4.286-4.643 7.11-8.713 6.557-19.245-.025-38.492.05-57.735-.038-4.286-.303-7.111-4.642-6.558-8.712.026-19.245-.05-38.492.038-57.735.302-3.633 3.62-6.63 7.267-6.558z" fill="url(#svg-test-type-coded-b)"></path><path d="M13.5 7.5c16.171.017 32.343-.034 48.513.026 3.2.214 4.935 3.54 4.487 6.459-.017 15.676.035 31.353-.025 47.028-.214 3.2-3.54 4.935-6.46 4.487-15.676-.017-31.353.035-47.028-.025-3.2-.214-4.935-3.541-4.487-6.46.017-15.676-.034-31.353.026-47.028C8.728 9.497 11 7.447 13.5 7.5z" fill="none" stroke="#fff" stroke-linecap="round" stroke-linejoin="round" stroke-opacity=".514" stroke-width="2" transform="translate(4.348 1) scale(1.2174)"></path><path d="M33.689 48.419c-1.28-.42-.971-1.853-.524-2.782l7.247-20.19c.633-1.912 3.646-.523 2.615 1.206-2.538 7.033-5.03 14.086-7.597 21.108-.323.605-1.099.895-1.741.658zm11.032-3.131c-.973-.937-.058-2.087.744-2.732l6.562-6.453c-2.221-2.21-4.498-4.37-6.684-6.612-1.09-1.582 1.53-3.088 2.489-1.513 2.469 2.455 4.994 4.858 7.428 7.345.734 1.066-.344 1.973-1.063 2.644-2.561 2.492-5.072 5.04-7.664 7.498a1.46 1.46 0 01-1.812-.177zm-17.287 0c-2.559-2.543-5.174-5.035-7.698-7.611-.734-1.066.344-1.972 1.063-2.644 2.563-2.493 5.074-5.045 7.67-7.501 1.567-1.086 3.15 1.488 1.537 2.447l-7.037 6.92c2.221 2.21 4.498 4.368 6.684 6.61.947 1.42-1.031 2.967-2.219 1.779z" fill="url(#svg-test-type-coded-e)" filter="url(#svg-test-type-coded-f)" transform="translate(4.348 1) scale(1.2174)"></path></svg>