<svg viewBox="0 0 100 100" xmlns="http://www.w3.org/2000/svg"><defs><linearGradient gradientTransform="matrix(1.2562 0 0 1.2564 6223.6 -3524.3)" gradientUnits="userSpaceOnUse" id="svg-test-type-web-active-c" x1="-4914.4" x2="-4914.4" y1="2811.8" y2="2867.8"><stop offset="0" stop-color="#fff"></stop><stop offset=".448" stop-color="#d3eaff"></stop><stop offset="1" stop-color="#48a8ff"></stop></linearGradient><linearGradient gradientTransform="translate(12.31 6.032) scale(1.2563)" gradientUnits="userSpaceOnUse" id="svg-test-type-web-active-b" x1="2.46" x2="48.66" y1="57.84" y2="13.56"><stop offset="0" stop-color="#3496ef"></stop><stop offset=".591" stop-color="#48a8ff" stop-opacity=".616"></stop><stop offset="1" stop-color="#48a8ff" stop-opacity="0"></stop></linearGradient><radialGradient cx="24.399" cy="23.78" gradientTransform="matrix(1.5321 0 0 1.0302 12.31 50.003)" gradientUnits="userSpaceOnUse" id="svg-test-type-web-active-a" r="23.78"><stop offset="0" stop-color="#48a8ff" stop-opacity=".725"></stop><stop offset=".908" stop-color="#48a8ff" stop-opacity=".043"></stop><stop offset="1" stop-color="#48a8ff" stop-opacity="0"></stop></radialGradient></defs><path d="M85.177 74.502c-.003 8.064-5.952 14.815-12.67 18.57-13.819 7.642-31.373 7.87-45.559 1.063-7.124-3.489-13.704-9.828-14.586-18.074-.703-7.76 4.297-14.85 10.627-18.856 11.057-7.299 25.266-8.681 37.994-5.775 8.802 2.086 17.714 6.812 22.165 15.009 1.283 2.482 2.046 5.258 2.03 8.062z" fill="url(#svg-test-type-web-active-a)"></path><path d="M87.69 43.721c.186 14.9-9.425 29.287-23.262 34.819-13.642 5.852-30.539 2.533-40.955-8.044-10.674-10.316-14.15-27.182-8.426-40.878C20.45 15.73 34.747 5.986 49.648 6.033c14.841-.322 29.268 9.078 34.97 22.784a37.707 37.707 0 013.071 14.904z" fill="url(#svg-test-type-web-active-b)"></path><path d="M86.434 43.721c.183 14.481-9.214 28.453-22.695 33.744-13.304 5.612-29.733 2.218-39.723-8.207-10.249-10.17-13.358-26.655-7.515-39.86C22.01 16.051 36.075 6.909 50.509 7.29 64.99 7.31 78.83 16.9 83.934 30.453a36.449 36.449 0 012.501 13.267z" fill="none" stroke="#fff" stroke-opacity=".51" stroke-width="2.5"></path><path d="M39.482 76.129a23.98 23.98 0 01-6.295-7.538 38.365 38.365 0 01-2.252-4.765h-9.81l-1.533-2.45 10.464.012a56.619 56.619 0 01-2.657-16.416H14.823V42.46h12.576a56.598 56.598 0 012.666-16.432l-10.473-.013 1.507-2.406h9.831a38.385 38.385 0 012.251-4.765 23.987 23.987 0 016.296-7.538 12.704 12.704 0 017.71-2.764 11.513 11.513 0 011.382.084c-4.997.61-9.637 4.532-13.073 11.042a38.975 38.975 0 00-1.8 3.94h15.048V8.532h2.512v15.076h15.327a39.121 39.121 0 00-1.743-3.834c-3.392-6.492-8-10.443-12.957-11.125a11.395 11.395 0 011.551-.108 12.707 12.707 0 017.71 2.764 23.996 23.996 0 016.296 7.538 38.116 38.116 0 012.249 4.764h9.206l1.534 2.45-9.862-.013q.628 1.916 1.118 3.975a58.681 58.681 0 011.544 12.428h11.948v2.513H73.231a58.694 58.694 0 01-1.544 12.438q-.494 2.072-1.13 4.003l9.87.013-1.507 2.406h-9.228a38.116 38.116 0 01-2.249 4.764 23.996 23.996 0 01-6.295 7.538 12.704 12.704 0 01-7.71 2.764 11.513 11.513 0 01-1.552-.106c4.956-.682 9.558-4.632 12.957-11.126a39.121 39.121 0 001.744-3.834h-15.33v15.073h-2.513V63.831h-15.04a39.088 39.088 0 001.798 3.939c3.436 6.51 8.078 10.428 13.073 11.043a11.307 11.307 0 01-1.382.085 12.707 12.707 0 01-7.711-2.769zm27.971-14.717a56.794 56.794 0 002.671-16.444H51.256v16.433zm-18.711-.014V44.971h-18.58a56.794 56.794 0 002.662 16.42zm21.381-18.944A56.806 56.806 0 0067.46 26.05l-16.207-.012V42.46zm-21.381 0V26.036l-15.91-.012a56.765 56.765 0 00-2.67 16.434z" fill="url(#svg-test-type-web-active-c)"></path></svg>