<svg viewBox="0 0 100 100" xmlns="http://www.w3.org/2000/svg"><defs><linearGradient gradientTransform="matrix(.99992 0 0 1.0001 4951 -2806)" gradientUnits="userSpaceOnUse" id="svg-test-type-web-d" x1="-4914.4" x2="-4914.4" y1="2811.8" y2="2867.8"><stop offset="0" stop-color="#fff"></stop><stop offset="1" stop-color="#96b2c9"></stop></linearGradient><linearGradient gradientTransform="translate(12.31 6.032) scale(1.2563)" gradientUnits="userSpaceOnUse" id="svg-test-type-web-b" x1="9.54" x2="43.56" y1="51.12" y2="13.56"><stop offset="0" stop-color="#71889a"></stop><stop offset=".044" stop-color="#71889a"></stop><stop offset=".243" stop-color="#71889a" stop-opacity=".635"></stop><stop offset="1" stop-color="#e4eef7"></stop></linearGradient><radialGradient cx="24.399" cy="23.78" gradientTransform="matrix(1.5321 0 0 1.0302 12.31 50.003)" gradientUnits="userSpaceOnUse" id="svg-test-type-web-a" r="23.78"><stop offset="0" stop-color="#71889a" stop-opacity=".765"></stop><stop offset=".79" stop-color="#71889a" stop-opacity=".071"></stop><stop offset=".939" stop-color="#71889a" stop-opacity=".012"></stop><stop offset="1" stop-color="#71889a" stop-opacity="0"></stop></radialGradient><filter filterUnits="userSpaceOnUse" height="74.005" id="svg-test-type-web-c" width="74" x="0" y="0"><feOffset dy="3"></feOffset><feGaussianBlur result="e" stdDeviation="3"></feGaussianBlur><feFlood flood-opacity=".161"></feFlood><feComposite in2="e" operator="in" result="result1"></feComposite><feComposite in="SourceGraphic" in2="result1"></feComposite></filter></defs><ellipse class="a" cx="48.744" cy="74.502" fill="url(#svg-test-type-web-a)" rx="36.434" ry="24.498" stroke-width="1.256"></ellipse><path d="M87.69 43.721c.198 15.154-9.763 29.752-23.945 35.094-13.913 5.655-30.964 1.838-41.139-9.208-10.453-10.783-13.3-28.023-6.867-41.594C21.823 14.282 36.743 5.188 51.735 6.071c15.147.5 29.271 11.122 33.955 25.535a37.702 37.702 0 012 12.115z" fill="url(#svg-test-type-web-b)" stroke-width="2.513"></path><path d="M86.434 43.721c.194 14.71-9.52 28.872-23.312 33.989-13.58 5.447-30.189 1.565-39.948-9.336-10.04-10.644-12.508-27.52-5.935-40.593C23.469 14.542 38.27 6.07 52.842 7.4c14.68.954 28.04 11.742 32.067 25.892a36.443 36.443 0 011.525 10.431z" fill="none" stroke="#fff" stroke-opacity=".512" stroke-width="2.513"></path><g filter="none" transform="translate(3.516 1) scale(1.2563)"><path d="M28.628 59.8c-3.214-2.469-5.343-6.07-6.803-9.793h-7.809c-.764-.983-1.78-2.481.376-1.948 2.028-.258 5.478.53 6.609-.388A45.082 45.082 0 0119.01 35H9c-.733-2.233 1.155-2.111 2.695-2h7.315a45.06 45.06 0 012.122-13.08c-2.52-.182-6.53.352-8.122-.277.351-1.849 2.072-1.72 3.522-1.647h5.289c2.021-5.117 5.515-10.56 11.24-11.84 1.027-.232 3.704-.186 1.185.271-5.189 1.723-8.292 6.747-10.222 11.568H36v-12c2.233-.733 2.11 1.155 2 2.695v9.305h12.2c-2.035-5.141-5.544-10.62-11.332-11.848 4.188-.696 8.066 2.343 10.425 5.567 1.832 1.667 2.118 5.281 4.013 6.28h6.694c1.179 1.272 1.402 2.472-.766 1.948-1.982.503-7.211-1.456-5.274 1.981.972 3.606 1.458 7.336 1.53 11.068H65c.733 2.233-1.156 2.111-2.695 2h-6.814c-.086 4.433-.752 8.868-2.13 13.087 2.362.182 6.21-.35 7.644.278-.352 1.849-2.072 1.72-3.523 1.647h-4.808c-2.022 5.127-5.53 10.584-11.272 11.845-.891.215-4.006.214-1.3-.314 5.12-1.773 8.183-6.745 10.1-11.53H38.001v11.998c-2.232.733-2.11-1.156-2-2.695v-9.294H24.03c2.049 5.177 5.61 10.713 11.466 11.87-2.388.405-4.98-.605-6.866-2.082zm22.264-11.714a45.216 45.216 0 002.126-13.089H38v13.08l12.892.009zm-14.893-.011V35H21.21c.06 4.429.776 8.848 2.119 13.069l12.67.006zm17.019-15.079a45.229 45.229 0 00-2.12-13.058l-12.9-.01V33l15.02-.004zm-17.019 0V19.928l-12.664-.01a45.193 45.193 0 00-2.125 13.081l14.789-.003z" fill="url(#svg-test-type-web-d)"></path></g></svg>